# xmcd
#
# Track frame offsets:
#	150
#	9873
#	21861
#	32117
#	43148
#	54534
#	66752
#	79114
#	92233
#	103479
#	111640
#	120938
#	134055
#	144855
#	155814
#	166165
#	176532
#	187691
#	196098
#	207548
#	218088
#	227890
#	238081
#	250266
#
# Disc length: 3494 seconds
#
# Revision: 0
# Processed by: cddbd v1.5.1PL2 Copyright (c) Steve Scherf et al.
# Submitted via: audiograbber 1.82.02
#
DISCID=550da418
DTITLE=Various Artist - Rarest Of The Rare, Vol 14
DYEAR=1900
DGENRE=R&B
TTITLE0=Columbus Pulsations - The Girl Of My Dreams
TTITLE1=Fabulous Nu-Tones - I'm Not Worthy Of Your Love
TTITLE2=Tommy Carver - Please Find My Love
TTITLE3=Signeals - Show Me The Way
TTITLE4=Flyers - I Told Them
TTITLE5=Gene Davis - Lost Love
TTITLE6=Dreamairs (Little Flatus and The) - Buy A Van
TTITLE7=Winds Of Notre Dame - Radiation Baby
TTITLE8=Chanteurs - New Rockin' Baby
TTITLE9=Zeroes - Flossie Mae
TTITLE10=Dellords - In Togetherness
TTITLE11=Richard Dixon - A Thousand Miles Away
TTITLE12=LeRoy Taylor - If I
TTITLE13=Decades - Sha Boom Bang
TTITLE14=LC Steels - Come Back Baby
TTITLE15=Johnny and Dell - There Is Love
TTITLE16=Hamiltons (George Green and The) - You Are My Lonely One
TTITLE17=Varnells - Day In Court
TTITLE18=Themes - Marnie
TTITLE19=Bubba Anderson - Where Has My Love Gone
TTITLE20=Chase and Gene - You're Everything To Me
TTITLE21=Woodie Robinson - Please Be Mine All Mine
TTITLE22=Sequence - My My My
TTITLE23=Messengers - This Is How I Feel
EXTD=
EXTT0=
EXTT1=
EXTT2=
EXTT3=
EXTT4=
EXTT5=
EXTT6=
EXTT7=
EXTT8=
EXTT9=
EXTT10=
EXTT11=
EXTT12=
EXTT13=
EXTT14=
EXTT15=
EXTT16=
EXTT17=
EXTT18=
EXTT19=
EXTT20=
EXTT21=
EXTT22=
EXTT23=
PLAYORDER=
